# xmcd CD database file
#
# Track frame offsets:
#	150
#	31307
#	61649
#	87971
#	107883
#	157555
#	194327
#	232624
#	265361
#	294723
#	329250
#
# Disc length: 4615 seconds
#
# Revision: 0
# Processed by: cddbd v1.5.1PL2 Copyright (c) Steve Scherf et al.
# Submitted via: CDex 1.50
#
DISCID=8712050b
DTITLE=John Coltrane - Tranesition - The complete Paul Chambers sessions
DYEAR=1956
DGENRE=Jazz
TTITLE0=Trane's Blues
TTITLE1=Dexterity
TTITLE2=Stablemates
TTITLE3=East Bound
TTITLE4=Trane's Strain
TTITLE5=High Step
TTITLE6=Nixon, Dixon And Yates Blues
TTITLE7=Omicron
TTITLE8=Nita
TTITLE9=We Six
TTITLE10=Just For The Love
EXTD=YEAR: 1956
EXTT0=
EXTT1=
EXTT2=
EXTT3=
EXTT4=
EXTT5=
EXTT6=
EXTT7=
EXTT8=
EXTT9=
EXTT10=
PLAYORDER=
